<svg width="20" height="20" viewBox="0 0 20 20" fill="none" xmlns="http://www.w3.org/2000/svg">
<path d="M19 9.49966C19.0034 10.8195 18.6951 12.1215 18.1 13.2997C17.3944 14.7114 16.3098 15.8988 14.9674 16.7289C13.6251 17.5591 12.0782 17.9991 10.5 17.9997C9.18013 18.0031 7.87812 17.6947 6.7 17.0997L1 18.9997L2.9 13.2997C2.30493 12.1215 1.99656 10.8195 2 9.49966C2.00061 7.92142 2.44061 6.37451 3.27072 5.03221C4.10083 3.68991 5.28825 2.60523 6.7 1.89966C7.87812 1.30459 9.18013 0.996221 10.5 0.999662H11C13.0843 1.11465 15.053 1.99442 16.5291 3.47052C18.0052 4.94662 18.885 6.91531 19 8.99966V9.49966Z" stroke="#9EA0A5" stroke-width="2" stroke-linecap="round" stroke-linejoin="round"/>
</svg>
